<svg width="64" height="64" viewBox="0 0 64 64" fill="none" xmlns="http://www.w3.org/2000/svg">
<g clip-path="url(#clip0)">
<path d="M7.67871 22H4.9541V3.93848L-0.509766 5.94531V3.48438L7.25391 0.569336H7.67871V22ZM26.8928 22H12.9182V20.0518L20.301 11.8486C21.3947 10.6084 22.1467 9.60254 22.5568 8.83105C22.9768 8.0498 23.1867 7.24414 23.1867 6.41406C23.1867 5.30078 22.8498 4.3877 22.176 3.6748C21.5021 2.96191 20.6037 2.60547 19.4807 2.60547C18.133 2.60547 17.0832 2.99121 16.3313 3.7627C15.5891 4.52441 15.218 5.58887 15.218 6.95605H12.508C12.508 4.99316 13.1379 3.40625 14.3977 2.19531C15.6672 0.984375 17.3615 0.378906 19.4807 0.378906C21.4631 0.378906 23.0305 0.901367 24.1828 1.94629C25.3352 2.98145 25.9113 4.36328 25.9113 6.0918C25.9113 8.19141 24.5734 10.6914 21.8977 13.5918L16.1848 19.7881H26.8928V22ZM33.8543 10.0176H35.8904C37.1697 9.99805 38.1756 9.66113 38.908 9.00684C39.6404 8.35254 40.0066 7.46875 40.0066 6.35547C40.0066 3.85547 38.7615 2.60547 36.2713 2.60547C35.0994 2.60547 34.1619 2.94238 33.4588 3.61621C32.7654 4.28027 32.4188 5.16406 32.4188 6.26758H29.7088C29.7088 4.57813 30.324 3.17676 31.5545 2.06348C32.7947 0.94043 34.367 0.378906 36.2713 0.378906C38.283 0.378906 39.8602 0.911133 41.0027 1.97559C42.1453 3.04004 42.7166 4.51953 42.7166 6.41406C42.7166 7.3418 42.4139 8.24023 41.8084 9.10938C41.2127 9.97852 40.3973 10.6279 39.3621 11.0576C40.534 11.4287 41.4373 12.0439 42.0721 12.9033C42.7166 13.7627 43.0389 14.8125 43.0389 16.0527C43.0389 17.9668 42.4139 19.4854 41.1639 20.6084C39.9139 21.7314 38.2879 22.293 36.2859 22.293C34.284 22.293 32.6531 21.751 31.3934 20.667C30.1434 19.583 29.5184 18.1523 29.5184 16.375H32.243C32.243 17.498 32.6092 18.3965 33.3416 19.0703C34.074 19.7441 35.0555 20.0811 36.2859 20.0811C37.5945 20.0811 38.5955 19.7393 39.2889 19.0557C39.9822 18.3721 40.3289 17.3906 40.3289 16.1113C40.3289 14.8711 39.948 13.9189 39.1863 13.2549C38.4246 12.5908 37.326 12.249 35.8904 12.2295H33.8543V10.0176Z" fill="white"/>
</g>
<defs>
<clipPath id="clip0">
<rect width="64" height="64" fill="white"/>
</clipPath>
</defs>
</svg>
