<svg width="64" height="64" viewBox="0 0 64 64" fill="none" xmlns="http://www.w3.org/2000/svg">
<path d="M8.65625 36.1937L5.88125 33.4187C4.70625 32.2437 4.70625 30.3437 5.88125 29.1812L30.1688 4.88125C31.3438 3.70625 33.2437 3.70625 34.4062 4.88125L58.6938 29.1688C59.8688 30.3438 59.8688 32.2438 58.6938 33.4063L55.9188 36.1812C54.7313 37.3687 52.7938 37.3437 51.6313 36.1312L37.2938 21.0813V57.0062C37.2938 58.6687 35.9563 60.0062 34.2938 60.0062H30.2938C28.6313 60.0062 27.2938 58.6687 27.2938 57.0062V21.0813L12.9437 36.1437C11.7812 37.3687 9.84375 37.3937 8.65625 36.1937V36.1937Z" fill="white"/>
</svg>
