<svg width="64" height="64" viewBox="0 0 64 64" fill="none" xmlns="http://www.w3.org/2000/svg">
<g clip-path="url(#clip0)">
<path d="M38 24V28C38 28.825 37.325 29.5 36.5 29.5H15.5C14.675 29.5 14 28.825 14 28V24C14 23.175 14.675 22.5 15.5 22.5H36.5C37.325 22.5 38 23.175 38 24ZM63.125 59.5875L59.5875 63.125C58.4125 64.3 56.5125 64.3 55.35 63.125L42.875 50.6625C42.3125 50.1 42 49.3375 42 48.5375V46.5C37.5875 49.95 32.0375 52 26 52C11.6375 52 0 40.3625 0 26C0 11.6375 11.6375 0 26 0C40.3625 0 52 11.6375 52 26C52 32.0375 49.95 37.5875 46.5 42H48.5375C49.3375 42 50.1 42.3125 50.6625 42.875L63.125 55.3375C64.2875 56.5125 64.2875 58.4125 63.125 59.5875ZM43 26C43 16.6 35.4 9 26 9C16.6 9 9 16.6 9 26C9 35.4 16.6 43 26 43C35.4 43 43 35.4 43 26Z" fill="white"/>
</g>
<defs>
<clipPath id="clip0">
<rect width="64" height="64" fill="white"/>
</clipPath>
</defs>
</svg>
