<svg width="64" height="64" viewBox="0 0 64 64" fill="none" xmlns="http://www.w3.org/2000/svg">
<path d="M60.2513 30.7398C54.8284 20.1589 44.0925 13 31.7996 13C19.5068 13 8.76788 20.1639 3.34794 30.7408C3.11919 31.1933 3 31.6932 3 32.2003C3 32.7073 3.11919 33.2073 3.34794 33.6598C8.77088 44.2407 19.5068 51.3996 31.7996 51.3996C44.0925 51.3996 54.8314 44.2357 60.2513 33.6588C60.4801 33.2063 60.5993 32.7063 60.5993 32.1993C60.5993 31.6922 60.4801 31.1923 60.2513 30.7398V30.7398ZM31.7996 46.5996C28.9516 46.5996 26.1675 45.7551 23.7995 44.1728C21.4315 42.5905 19.5858 40.3416 18.4959 37.7104C17.406 35.0791 17.1209 32.1838 17.6765 29.3905C18.2321 26.5972 19.6035 24.0314 21.6174 22.0176C23.6313 20.0037 26.1971 18.6323 28.9904 18.0766C31.7837 17.521 34.679 17.8062 37.3102 18.8961C39.9414 19.986 42.1904 21.8316 43.7727 24.1997C45.3549 26.5677 46.1995 29.3518 46.1995 32.1998C46.2004 34.0911 45.8286 35.964 45.1052 37.7115C44.3819 39.4589 43.3212 41.0467 41.9839 42.3841C40.6466 43.7214 39.0588 44.782 37.3113 45.5054C35.5638 46.2287 33.6909 46.6005 31.7996 46.5996V46.5996ZM31.7996 22.5999C30.9428 22.6119 30.0914 22.7393 29.2687 22.9789C29.9469 23.9006 30.2723 25.0348 30.186 26.1758C30.0997 27.3168 29.6073 28.3892 28.7982 29.1983C27.989 30.0075 26.9167 30.4998 25.7756 30.5862C24.6346 30.6725 23.5004 30.347 22.5787 29.6688C22.0539 31.6024 22.1486 33.6518 22.8496 35.5288C23.5506 37.4057 24.8225 39.0155 26.4863 40.1317C28.1501 41.2478 30.1221 41.8141 32.1246 41.7509C34.1271 41.6876 36.0594 40.998 37.6494 39.779C39.2395 38.5601 40.4072 36.8731 40.9884 34.9557C41.5695 33.0383 41.5347 30.987 40.8888 29.0904C40.243 27.1938 39.0187 25.5475 37.3882 24.3832C35.7577 23.2189 33.8031 22.5952 31.7996 22.5999V22.5999Z" fill="white"/>
</svg>
