<svg width="64" height="64" viewBox="0 0 64 64" fill="none" xmlns="http://www.w3.org/2000/svg">
<path d="M31.9994 46.3998C24.4145 46.3998 18.2746 40.5289 17.7096 33.089L7.2197 24.9821C5.84072 26.7121 4.57173 28.541 3.54774 30.541C3.31899 30.9935 3.1998 31.4935 3.1998 32.0005C3.1998 32.5075 3.31899 33.0075 3.54774 33.46C8.97068 44.0409 19.7066 51.1998 31.9994 51.1998C34.6904 51.1998 37.2864 50.7998 39.7883 50.1538L34.5994 46.1388C33.7424 46.3044 32.8722 46.3917 31.9994 46.3998ZM63.3811 52.2098L52.3262 43.6659C55.6843 40.8358 58.4462 37.3662 60.4511 33.459C60.6799 33.0065 60.7991 32.5065 60.7991 31.9995C60.7991 31.4925 60.6799 30.9925 60.4511 30.54C55.0282 19.9591 44.2923 12.8002 31.9994 12.8002C26.851 12.8065 21.7862 14.1026 17.2676 16.5702L4.54573 6.73728C4.37984 6.60819 4.19013 6.51305 3.98745 6.45731C3.78478 6.40156 3.5731 6.3863 3.36452 6.4124C3.15594 6.43849 2.95455 6.50543 2.77185 6.60939C2.58916 6.71335 2.42874 6.85229 2.29976 7.01828L0.33678 9.54525C0.0763814 9.88023 -0.0403016 10.3049 0.012394 10.7259C0.0650895 11.1469 0.282848 11.5298 0.617777 11.7902L59.4531 57.2627C59.619 57.3918 59.8087 57.4869 60.0114 57.5427C60.2141 57.5984 60.4258 57.6137 60.6343 57.5876C60.8429 57.5615 61.0443 57.4946 61.227 57.3906C61.4097 57.2866 61.5701 57.1477 61.6991 56.9817L63.6631 54.4547C63.9234 54.1196 64.0399 53.6949 63.987 53.2739C63.9341 52.8529 63.7162 52.4701 63.3811 52.2098ZM45.0093 38.0099L41.0793 34.972C41.4103 34.0154 41.5858 33.0121 41.5993 32C41.6188 30.5183 41.2906 29.0526 40.6409 27.7208C39.9912 26.3889 39.0383 25.228 37.8585 24.3313C36.6788 23.4346 35.3052 22.827 33.8481 22.5574C32.391 22.2879 30.8909 22.3638 29.4685 22.7791C30.0715 23.5962 30.3977 24.5846 30.3994 25.6001C30.3845 25.938 30.3329 26.2733 30.2454 26.6001L22.8845 20.9111C25.4415 18.7744 28.6672 17.6026 31.9994 17.6002C33.8907 17.5991 35.7637 17.9709 37.5113 18.6941C39.2588 19.4174 40.8466 20.4781 42.184 21.8154C43.5214 23.1528 44.582 24.7406 45.3053 26.4882C46.0286 28.2357 46.4003 30.1087 46.3993 32C46.3993 34.163 45.8703 36.179 45.0093 38.0109V38.0099Z" fill="white"/>
</svg>
