<svg width="64" height="64" viewBox="0 0 64 64" fill="none" xmlns="http://www.w3.org/2000/svg">
<g clip-path="url(#clip0)">
<path d="M32.5824 62.2558C31.3807 63.4213 29.7837 64 27.7915 64H6.20112C4.20889 64 2.61194 63.4213 1.41028 62.2558C0.208614 61.0903 -0.13133 57.7225 0.0425944 56.7418C0.216519 55.7612 0.429973 54.853 0.698766 54.017C0.959653 53.1811 1.31541 52.3612 1.75813 51.5655C2.20084 50.7697 2.71471 50.0946 3.29183 49.5319C3.86894 48.9693 4.57255 48.5191 5.40264 48.1896C6.23274 47.86 7.1498 47.6913 8.15382 47.6913C8.30403 47.6913 8.64397 47.8681 9.18946 48.2298C9.73495 48.5915 10.3437 48.9934 11.0315 49.4355C11.7193 49.8775 12.6047 50.2794 13.7036 50.6411C14.8025 51.0028 15.9014 51.1797 17.0003 51.1797C18.0992 51.1797 19.206 51.0028 20.2969 50.6411C21.3879 50.2794 22.2813 49.8775 22.9691 49.4355C23.6568 48.9934 24.2656 48.5915 24.8111 48.2298C25.3566 47.8681 25.6965 47.6913 25.8467 47.6913C26.8507 47.6913 27.7678 47.86 28.5979 48.1896C29.428 48.5272 30.1316 48.9693 30.7087 49.5319C31.2858 50.0946 31.7997 50.7697 32.2424 51.5655C32.6851 52.3612 33.0409 53.1811 33.3018 54.017C33.5627 54.853 33.784 55.7612 33.9579 56.7418C34.1319 57.7225 33.784 61.0903 32.5824 62.2558ZM26.4792 39.6454C26.4792 42.3059 25.5542 44.5806 23.6964 46.4615C21.8385 48.3423 19.6091 49.2908 16.9924 49.2908C14.3756 49.2908 12.1383 48.3504 10.2884 46.4615C8.43842 44.5726 7.50555 42.3059 7.50555 39.6454C7.50555 36.9849 8.43052 34.7102 10.2884 32.8293C12.1462 30.9485 14.3756 30 16.9924 30C19.6091 30 21.8465 30.9404 23.6964 32.8293C25.5463 34.7182 26.4792 36.9849 26.4792 39.6454Z" fill="white"/>
<path d="M1.53062 18.1333V0.388357H7.90468C10.1878 0.388357 11.9225 0.806794 13.1087 1.64367C14.3031 2.48054 14.9003 3.69523 14.9003 5.28773C14.9003 6.20585 14.689 6.98991 14.2665 7.63991C13.8441 8.28991 13.2225 8.76929 12.4019 9.07804C13.3281 9.32179 14.0391 9.77679 14.5347 10.443C15.0303 11.1093 15.2781 11.9218 15.2781 12.8805C15.2781 14.6193 14.7256 15.9274 13.6206 16.8049C12.5237 17.6743 10.8947 18.1171 8.73343 18.1333H1.53062ZM5.80843 10.5893V14.8427H8.61155C9.38343 14.8427 9.97655 14.668 10.3909 14.3187C10.8053 13.9612 11.0125 13.4615 11.0125 12.8196C11.0125 11.3408 10.2772 10.5974 8.80655 10.5893H5.80843ZM5.80843 7.78616H8.03874C8.97312 7.77804 9.63937 7.60741 10.0375 7.27429C10.4356 6.94116 10.6347 6.4496 10.6347 5.7996C10.6347 5.0521 10.4194 4.51585 9.98874 4.19085C9.55812 3.85773 8.86343 3.69117 7.90468 3.69117H5.80843V7.78616ZM28.6478 10.6137H21.9203V14.8427H29.8665V18.1333H17.6425V0.388357H29.8909V3.69117H21.9203V7.43273H28.6478V10.6137ZM45.7834 3.69117H40.4575V18.1333H36.1797V3.69117H30.9512V0.388357H45.7834V3.69117ZM56.2159 14.8183H50.3537L49.33 18.1333H44.7596L51.2678 0.388357H55.2896L61.8465 18.1333H57.2518L56.2159 14.8183ZM51.3775 11.5155H55.1921L53.2787 5.36085L51.3775 11.5155Z" fill="#FF0000"/>
<mask id="mask0" mask-type="alpha" maskUnits="userSpaceOnUse" x="29" y="18" width="36" height="20">
<rect x="29.1052" y="18" width="35.7895" height="20" fill="#C4C4C4"/>
</mask>
<g mask="url(#mask0)">
<path d="M61.5714 13.3571H50.6429V2.42857C50.6429 1.08754 49.5553 0 48.2143 0H45.7857C44.4447 0 43.3571 1.08754 43.3571 2.42857V13.3571H32.4286C31.0875 13.3571 30 14.4447 30 15.7857V18.2143C30 19.5553 31.0875 20.6429 32.4286 20.6429H43.3571V31.5714C43.3571 32.9125 44.4447 34 45.7857 34H48.2143C49.5553 34 50.6429 32.9125 50.6429 31.5714V20.6429H61.5714C62.9125 20.6429 64 19.5553 64 18.2143V15.7857C64 14.4447 62.9125 13.3571 61.5714 13.3571Z" fill="white"/>
</g>
</g>
<defs>
<clipPath id="clip0">
<rect width="64" height="64" fill="white"/>
</clipPath>
</defs>
</svg>
