<svg width="64" height="64" viewBox="0 0 64 64" fill="none" xmlns="http://www.w3.org/2000/svg">
<path d="M18.6666 7V17C18.6666 18.6569 17.3235 20 15.6666 20H3C1.34312 20 0 18.6569 0 17V7C0 5.34312 1.34312 4 3 4H15.6666C17.3235 4 18.6666 5.34312 18.6666 7ZM41.3334 37V27C41.3334 25.3431 39.9902 24 38.3334 24H25.6666C24.0097 24 22.6666 25.3431 22.6666 27V37C22.6666 38.6569 24.0097 40 25.6666 40H38.3332C39.9902 40 41.3334 38.6569 41.3334 37V37ZM45.3334 7V17C45.3334 18.6569 46.6765 20 48.3334 20H61C62.6569 20 64 18.6569 64 17V7C64 5.34312 62.6569 4 61 4H48.3334C46.6765 4 45.3334 5.34312 45.3334 7V7ZM41.3334 17V7C41.3334 5.34312 39.9902 4 38.3334 4H25.6666C24.0097 4 22.6666 5.34312 22.6666 7V17C22.6666 18.6569 24.0097 20 25.6666 20H38.3332C39.9902 20 41.3334 18.6569 41.3334 17V17ZM15.6666 24H3C1.34312 24 0 25.3431 0 27V37C0 38.6569 1.34312 40 3 40H15.6666C17.3235 40 18.6666 38.6569 18.6666 37V27C18.6666 25.3431 17.3235 24 15.6666 24V24ZM0 47V57C0 58.6569 1.34312 60 3 60H15.6666C17.3235 60 18.6666 58.6569 18.6666 57V47C18.6666 45.3431 17.3235 44 15.6666 44H3C1.34312 44 0 45.3431 0 47ZM48.3334 40H61C62.6569 40 64 38.6569 64 37V27C64 25.3431 62.6569 24 61 24H48.3334C46.6765 24 45.3334 25.3431 45.3334 27V37C45.3334 38.6569 46.6765 40 48.3334 40ZM48.3334 60H61C62.6569 60 64 58.6569 64 57V47C64 45.3431 62.6569 44 61 44H48.3334C46.6765 44 45.3334 45.3431 45.3334 47V57C45.3334 58.6569 46.6765 60 48.3334 60ZM22.6666 47V57C22.6666 58.6569 24.0097 60 25.6666 60H38.3332C39.9901 60 41.3332 58.6569 41.3332 57V47C41.3332 45.3431 39.9901 44 38.3332 44H25.6666C24.0097 44 22.6666 45.3431 22.6666 47Z" fill="white"/>
</svg>
