<svg width="64" height="64" viewBox="0 0 64 64" fill="none" xmlns="http://www.w3.org/2000/svg">
<path d="M32.5824 62.2558C31.3807 63.4213 29.7837 64 27.7915 64H6.20112C4.20889 64 2.61194 63.4213 1.41028 62.2558C0.208614 61.0903 -0.13133 57.7225 0.0425944 56.7418C0.216519 55.7612 0.429973 54.853 0.698766 54.017C0.959653 53.1811 1.31541 52.3612 1.75813 51.5655C2.20084 50.7697 2.71471 50.0946 3.29183 49.5319C3.86894 48.9693 4.57255 48.5191 5.40264 48.1896C6.23274 47.86 7.1498 47.6913 8.15382 47.6913C8.30403 47.6913 8.64397 47.8681 9.18946 48.2298C9.73495 48.5915 10.3437 48.9934 11.0315 49.4355C11.7193 49.8775 12.6047 50.2794 13.7036 50.6411C14.8025 51.0028 15.9014 51.1797 17.0003 51.1797C18.0992 51.1797 19.206 51.0028 20.2969 50.6411C21.3879 50.2794 22.2813 49.8775 22.9691 49.4355C23.6568 48.9934 24.2656 48.5915 24.8111 48.2298C25.3566 47.8681 25.6965 47.6913 25.8467 47.6913C26.8507 47.6913 27.7678 47.86 28.5979 48.1896C29.428 48.5272 30.1316 48.9693 30.7087 49.5319C31.2858 50.0946 31.7997 50.7697 32.2424 51.5655C32.6851 52.3612 33.0409 53.1811 33.3018 54.017C33.5627 54.853 33.784 55.7612 33.9579 56.7418C34.1319 57.7225 33.784 61.0903 32.5824 62.2558ZM26.4792 39.6454C26.4792 42.3059 25.5542 44.5806 23.6964 46.4615C21.8385 48.3423 19.6091 49.2908 16.9924 49.2908C14.3756 49.2908 12.1383 48.3504 10.2884 46.4615C8.43842 44.5726 7.50555 42.3059 7.50555 39.6454C7.50555 36.9849 8.43052 34.7102 10.2884 32.8293C12.1462 30.9485 14.3756 30 16.9924 30C19.6091 30 21.8465 30.9404 23.6964 32.8293C25.5463 34.7182 26.4792 36.9849 26.4792 39.6454Z" fill="white"/>
<path d="M61.5714 13.3571H50.6429V2.42857C50.6429 1.08754 49.5553 0 48.2143 0H45.7857C44.4447 0 43.3571 1.08754 43.3571 2.42857V13.3571H32.4286C31.0875 13.3571 30 14.4447 30 15.7857V18.2143C30 19.5553 31.0875 20.6429 32.4286 20.6429H43.3571V31.5714C43.3571 32.9125 44.4447 34 45.7857 34H48.2143C49.5553 34 50.6429 32.9125 50.6429 31.5714V20.6429H61.5714C62.9125 20.6429 64 19.5553 64 18.2143V15.7857C64 14.4447 62.9125 13.3571 61.5714 13.3571Z" fill="white"/>
</svg>
