<svg width="64" height="64" viewBox="0 0 64 64" fill="none" xmlns="http://www.w3.org/2000/svg">
<g clip-path="url(#clip0)">
<path fill-rule="evenodd" clip-rule="evenodd" d="M52.8235 5H43.1176V2H52.8235H55.8235V5V14.7059H52.8235V5ZM20.8824 2V5H11.1765V14.7059H8.17647V5V2H11.1765H20.8824ZM8.17647 36.9412H11.1765V40.155C10.8395 40.4053 10.5234 40.6746 10.2282 40.9625C9.47394 41.6978 8.7877 42.5542 8.17647 43.5387V36.9412ZM55.8235 43.5373C55.9554 43.7496 56.0837 43.9679 56.2085 44.1922C56.9117 45.4561 57.4767 46.7582 57.8911 48.0859C58.3054 49.4135 58.657 50.8561 58.9332 52.4135C59.2094 53.971 58.657 59.3199 56.7485 61.171C54.8399 63.022 52.3036 63.9412 49.1395 63.9412H14.8488C11.6847 63.9412 9.14837 63.022 7.23985 61.171C5.33133 59.3199 4.79142 53.971 5.06765 52.4135C5.34388 50.8561 5.6829 49.4135 6.1098 48.0859C6.52416 46.7582 7.08918 45.4561 7.79232 44.1922C7.91685 43.9684 8.04492 43.7506 8.17647 43.5387V46.6471V49.6471H11.1765H20.8824V46.6471H11.1765V40.155C11.8856 39.6282 12.687 39.1853 13.5807 38.8305C14.8991 38.3071 16.3556 38.039 17.9502 38.039C18.1887 38.039 18.7287 38.3199 19.595 38.8944C20.4614 39.4688 21.4282 40.1071 22.5206 40.8093C23.613 41.5114 25.0193 42.1497 26.7645 42.7242C28.5098 43.2986 30.2551 43.5795 32.0004 43.5795C33.7457 43.5795 35.5036 43.2986 37.2363 42.7242C38.9691 42.1497 40.3879 41.5114 41.4803 40.8093C42.5726 40.1071 43.5395 39.4688 44.4058 38.8944C45.2722 38.3199 45.8121 38.039 46.0507 38.039C47.6453 38.039 49.1018 38.3071 50.4202 38.8305C51.3136 39.1939 52.1147 39.6334 52.8235 40.157V46.6471H43.1176V49.6471H52.8235H55.8235V46.6471V43.5373ZM55.8235 43.5373C55.2125 42.5534 54.5266 41.6975 53.7727 40.9625C53.4772 40.6744 53.1608 40.4062 52.8235 40.157V36.9412H55.8235V43.5373ZM42.6354 36.0859C45.5861 33.0986 47.0552 29.4859 47.0552 25.2603C47.0552 21.0348 45.5735 17.4348 42.6354 14.4348C39.6973 11.4348 36.1439 9.94118 31.9879 9.94118C27.8318 9.94118 24.291 11.4476 21.3403 14.4348C18.3896 17.422 16.9206 21.0348 16.9206 25.2603C16.9206 29.4859 18.4022 33.0859 21.3403 36.0859C24.2784 39.0859 27.8318 40.5795 31.9879 40.5795C36.1439 40.5795 39.6847 39.0731 42.6354 36.0859Z" fill="#FF9365"/>
</g>
<defs>
<clipPath id="clip0">
<rect width="64" height="64" fill="white"/>
</clipPath>
</defs>
</svg>
