<svg width="56" height="64" viewBox="0 0 56 64" fill="none" xmlns="http://www.w3.org/2000/svg">
<path d="M40 56V61C40 62.6569 38.6569 64 37 64H3C1.34312 64 0 62.6569 0 61V15C0 13.3431 1.34312 12 3 12H12V49C12 52.8599 15.1401 56 19 56H40ZM40 13V0H19C17.3431 0 16 1.34312 16 3V49C16 50.6569 17.3431 52 19 52H53C54.6569 52 56 50.6569 56 49V16H43C41.35 16 40 14.65 40 13ZM55.1214 9.12138L46.8786 0.878625C46.316 0.316053 45.553 4.15995e-06 44.7574 0L44 0V12H56V11.2426C56 10.447 55.6839 9.68398 55.1214 9.12138V9.12138Z" fill="white"/>
</svg>
