<svg width="64" height="64" viewBox="0 0 64 64" fill="none" xmlns="http://www.w3.org/2000/svg">
<rect y="8" width="10.8722" height="7.72491" fill="#212121"/>
<rect x="13.202" y="8" width="10.8722" height="7.72491" fill="#212121"/>
<rect x="26.4039" y="8" width="10.8722" height="7.72491" fill="#212121"/>
<rect y="18.0424" width="10.8722" height="7.72491" fill="#212121"/>
<rect x="13.202" y="18.0424" width="10.8722" height="7.72491" fill="#212121"/>
<rect x="26.4039" y="18.0424" width="10.8722" height="7.72491" fill="#212121"/>
<rect y="28.0848" width="10.8722" height="7.72491" fill="#212121"/>
<rect x="13.202" y="28.0848" width="10.8722" height="7.72491" fill="#212121"/>
<rect x="26.4039" y="28.0848" width="10.8722" height="7.72491" fill="#212121"/>
<rect x="39.8767" y="8" width="10.8722" height="7.72491" fill="#212121"/>
<rect x="39.8767" y="18.0424" width="10.8722" height="7.72491" fill="#212121"/>
<rect x="39.8767" y="28.0848" width="10.8722" height="7.72491" fill="#212121"/>
<rect y="38.1811" width="10.8722" height="7.72491" fill="#212121"/>
<rect x="13.202" y="38.1811" width="10.8722" height="7.72491" fill="#212121"/>
<rect x="26.4039" y="38.1811" width="10.8722" height="7.72491" fill="#212121"/>
<rect x="39.8767" y="38.1811" width="10.8722" height="7.72491" fill="#212121"/>
<rect x="53.1278" y="8" width="10.8722" height="7.72491" fill="#212121"/>
<rect x="53.1278" y="18.0424" width="10.8722" height="7.72491" fill="#212121"/>
<rect x="53.1278" y="28.0848" width="10.8722" height="7.72491" fill="#212121"/>
<rect x="53.1278" y="38.1811" width="10.8722" height="7.72491" fill="#212121"/>
<rect y="48.2751" width="10.8722" height="7.72491" fill="#212121"/>
<rect x="13.202" y="48.2751" width="10.8722" height="7.72491" fill="#212121"/>
<rect x="26.4039" y="48.2751" width="10.8722" height="7.72491" fill="#212121"/>
<rect x="39.8767" y="48.2751" width="10.8722" height="7.72491" fill="#212121"/>
<rect x="53.1278" y="48.2751" width="10.8722" height="7.72491" fill="#212121"/>
</svg>
