<svg width="64" height="64" viewBox="0 0 64 64" fill="none" xmlns="http://www.w3.org/2000/svg">
<rect y="8" width="13.711" height="9.78199" fill="#212121"/>
<rect x="16.6491" y="8" width="13.711" height="9.78199" fill="#212121"/>
<rect x="33.2982" y="8" width="13.711" height="9.78199" fill="#212121"/>
<rect y="20.7166" width="13.711" height="9.78199" fill="#212121"/>
<rect x="16.6491" y="20.7166" width="13.711" height="9.78199" fill="#212121"/>
<rect x="33.2982" y="20.7166" width="13.711" height="9.78199" fill="#212121"/>
<rect y="33.4332" width="13.711" height="9.78199" fill="#212121"/>
<rect x="16.6491" y="33.4332" width="13.711" height="9.78199" fill="#212121"/>
<rect x="33.2982" y="33.4332" width="13.711" height="9.78199" fill="#212121"/>
<rect x="50.2889" y="8" width="13.711" height="9.78199" fill="#212121"/>
<rect x="50.2889" y="20.7166" width="13.711" height="9.78199" fill="#212121"/>
<rect x="50.2889" y="33.4332" width="13.711" height="9.78199" fill="#212121"/>
<rect y="46.218" width="13.711" height="9.78199" fill="#212121"/>
<rect x="16.6491" y="46.218" width="13.711" height="9.78199" fill="#212121"/>
<rect x="33.2982" y="46.218" width="13.711" height="9.78199" fill="#212121"/>
<rect x="50.2889" y="46.218" width="13.711" height="9.78199" fill="#212121"/>
</svg>
