<svg width="64" height="64" viewBox="0 0 64 64" fill="none" xmlns="http://www.w3.org/2000/svg">
<path d="M0 56V8H2.25V56H0ZM3.35713 55.9659V8H4.5V55.9659H3.35713ZM6.75 55.9659V8H7.85712V55.9659H6.75ZM12.3571 55.9659V8H13.4642V55.9659H12.3571ZM16.8571 55.9659V8H19.0714V55.9659H16.8571ZM22.4643 55.9659V8H23.5714V55.9659H22.4643ZM24.7143 55.9659V8H25.8214V55.9659H24.7143ZM26.9643 55.9659V8H28.0714V55.9659H26.9643ZM31.4286 55.9659V8H33.6786V55.9659H31.4286V55.9659ZM37.0358 55.9659V8H39.2858V55.9659H37.0358ZM41.5356 55.9659V8H43.7858V55.9659H41.5356ZM46.0358 55.9659V8H48.2859V55.9659H46.0358ZM49.3929 55.9659V8H51.6429V55.9659H49.3929ZM55.0358 55.9659V8H58.3929V55.9659H55.0358ZM59.5 55.9659V8H60.6429V55.9659H59.5V55.9659ZM61.75 56V8H64V56H61.75V56Z" fill="white"/>
</svg>
