<svg width="64" height="64" viewBox="0 0 64 64" fill="none" xmlns="http://www.w3.org/2000/svg">
<g clip-path="url(#clip0)">
<path d="M38 52H30C29.4695 52 28.9608 52.2107 28.5858 52.5858C28.2107 52.9609 28 53.4696 28 54V58C28 58.5304 28.2107 59.0391 28.5858 59.4142C28.9608 59.7893 29.4695 60 30 60H38C38.5304 60 39.0391 59.7893 39.4142 59.4142C39.7893 59.0391 40 58.5304 40 58V54C40 53.4696 39.7893 52.9609 39.4142 52.5858C39.0391 52.2107 38.5304 52 38 52ZM22 44H16V6C16 5.46957 15.7893 4.96086 15.4142 4.58579C15.0391 4.21071 14.5304 4 14 4H9.99997C9.46954 4 8.96083 4.21071 8.58576 4.58579C8.21069 4.96086 7.99997 5.46957 7.99997 6V44H1.99997C0.226224 44 -0.671276 46.155 0.588724 47.4137L10.5887 59.4137C10.9638 59.7885 11.4723 59.9991 12.0025 59.9991C12.5327 59.9991 13.0412 59.7885 13.4162 59.4137L23.4162 47.4137C24.6687 46.1575 23.7775 44 22 44ZM54 20H30C29.4695 20 28.9608 20.2107 28.5858 20.5858C28.2107 20.9609 28 21.4696 28 22V26C28 26.5304 28.2107 27.0391 28.5858 27.4142C28.9608 27.7893 29.4695 28 30 28H54C54.5304 28 55.0391 27.7893 55.4142 27.4142C55.7893 27.0391 56 26.5304 56 26V22C56 21.4696 55.7893 20.9609 55.4142 20.5858C55.0391 20.2107 54.5304 20 54 20ZM46 36H30C29.4695 36 28.9608 36.2107 28.5858 36.5858C28.2107 36.9609 28 37.4696 28 38V42C28 42.5304 28.2107 43.0391 28.5858 43.4142C28.9608 43.7893 29.4695 44 30 44H46C46.5304 44 47.0391 43.7893 47.4142 43.4142C47.7893 43.0391 48 42.5304 48 42V38C48 37.4696 47.7893 36.9609 47.4142 36.5858C47.0391 36.2107 46.5304 36 46 36ZM62 4H30C29.4695 4 28.9608 4.21071 28.5858 4.58579C28.2107 4.96086 28 5.46957 28 6V10C28 10.5304 28.2107 11.0391 28.5858 11.4142C28.9608 11.7893 29.4695 12 30 12H62C62.5304 12 63.0391 11.7893 63.4142 11.4142C63.7893 11.0391 64 10.5304 64 10V6C64 5.46957 63.7893 4.96086 63.4142 4.58579C63.0391 4.21071 62.5304 4 62 4V4Z" fill="white"/>
</g>
<defs>
<clipPath id="clip0">
<rect width="64" height="64" fill="white"/>
</clipPath>
</defs>
</svg>
