<svg width="64" height="64" viewBox="0 0 64 64" fill="none" xmlns="http://www.w3.org/2000/svg">
<rect y="34" width="8.75" height="8.33333" fill="white"/>
<rect x="10.625" y="34" width="8.75" height="8.33333" fill="white"/>
<rect x="21.25" y="34" width="8.75" height="8.33333" fill="white"/>
<rect y="44.8333" width="8.75" height="8.33333" fill="white"/>
<rect x="10.625" y="44.8333" width="8.75" height="8.33333" fill="white"/>
<rect x="21.25" y="44.8333" width="8.75" height="8.33333" fill="white"/>
<rect y="55.6667" width="8.75" height="8.33333" fill="white"/>
<rect x="10.625" y="55.6667" width="8.75" height="8.33333" fill="white"/>
<rect x="21.25" y="55.6667" width="8.75" height="8.33333" fill="white"/>
<path d="M61.5714 13.3571H50.6429V2.42857C50.6429 1.08754 49.5553 0 48.2143 0H45.7857C44.4447 0 43.3571 1.08754 43.3571 2.42857V13.3571H32.4286C31.0875 13.3571 30 14.4447 30 15.7857V18.2143C30 19.5553 31.0875 20.6429 32.4286 20.6429H43.3571V31.5714C43.3571 32.9125 44.4447 34 45.7857 34H48.2143C49.5553 34 50.6429 32.9125 50.6429 31.5714V20.6429H61.5714C62.9125 20.6429 64 19.5553 64 18.2143V15.7857C64 14.4447 62.9125 13.3571 61.5714 13.3571Z" fill="white"/>
</svg>
