<svg width="64" height="64" viewBox="0 0 64 64" fill="none" xmlns="http://www.w3.org/2000/svg">
<path d="M4 22.5V7C4 5.3375 5.3375 4 7 4H22.5C23.325 4 24 4.675 24 5.5V10.5C24 11.325 23.325 12 22.5 12H12V22.5C12 23.325 11.325 24 10.5 24H5.5C4.675 24 4 23.325 4 22.5ZM40 5.5V10.5C40 11.325 40.675 12 41.5 12H52V22.5C52 23.325 52.675 24 53.5 24H58.5C59.325 24 60 23.325 60 22.5V7C60 5.3375 58.6625 4 57 4H41.5C40.675 4 40 4.675 40 5.5ZM58.5 40H53.5C52.675 40 52 40.675 52 41.5V52H41.5C40.675 52 40 52.675 40 53.5V58.5C40 59.325 40.675 60 41.5 60H57C58.6625 60 60 58.6625 60 57V41.5C60 40.675 59.325 40 58.5 40ZM24 58.5V53.5C24 52.675 23.325 52 22.5 52H12V41.5C12 40.675 11.325 40 10.5 40H5.5C4.675 40 4 40.675 4 41.5V57C4 58.6625 5.3375 60 7 60H22.5C23.325 60 24 59.325 24 58.5Z" fill="white"/>
</svg>
