<svg width="64" height="64" viewBox="0 0 64 64" fill="none" xmlns="http://www.w3.org/2000/svg">
<rect y="8" width="8.9472" height="6.18038" fill="#212121"/>
<rect x="11.0106" y="8" width="8.9472" height="6.18038" fill="#212121"/>
<rect x="22.0211" y="8" width="8.9472" height="6.18038" fill="#212121"/>
<rect y="16.3639" width="8.9472" height="6.18038" fill="#212121"/>
<rect x="11.0106" y="16.3639" width="8.9472" height="6.18038" fill="#212121"/>
<rect x="22.0211" y="16.3639" width="8.9472" height="6.18038" fill="#212121"/>
<rect y="24.7278" width="8.9472" height="6.18038" fill="#212121"/>
<rect x="11.0106" y="24.7278" width="8.9472" height="6.18038" fill="#212121"/>
<rect x="22.0211" y="24.7278" width="8.9472" height="6.18038" fill="#212121"/>
<rect x="33.0317" y="8" width="8.9472" height="6.18038" fill="#212121"/>
<rect x="33.0317" y="16.3639" width="8.9472" height="6.18038" fill="#212121"/>
<rect x="33.0317" y="24.7278" width="8.9472" height="6.18038" fill="#212121"/>
<rect y="33.0918" width="8.9472" height="6.18038" fill="#212121"/>
<rect x="11.0106" y="33.0918" width="8.9472" height="6.18038" fill="#212121"/>
<rect x="22.0211" y="33.0918" width="8.9472" height="6.18038" fill="#212121"/>
<rect x="33.0317" y="33.0918" width="8.9472" height="6.18038" fill="#212121"/>
<rect x="44.0422" y="8" width="8.9472" height="6.18038" fill="#212121"/>
<rect x="44.0422" y="16.3639" width="8.9472" height="6.18038" fill="#212121"/>
<rect x="44.0422" y="24.7278" width="8.9472" height="6.18038" fill="#212121"/>
<rect x="44.0422" y="33.0918" width="8.9472" height="6.18038" fill="#212121"/>
<rect y="41.4557" width="8.9472" height="6.18038" fill="#212121"/>
<rect x="11.0106" y="41.4557" width="8.9472" height="6.18038" fill="#212121"/>
<rect x="22.0211" y="41.4557" width="8.9472" height="6.18038" fill="#212121"/>
<rect x="33.0317" y="41.4557" width="8.9472" height="6.18038" fill="#212121"/>
<rect x="44.0422" y="41.4557" width="8.9472" height="6.18038" fill="#212121"/>
<rect y="49.8196" width="8.9472" height="6.18038" fill="#212121"/>
<rect x="11.0106" y="49.8196" width="8.9472" height="6.18038" fill="#212121"/>
<rect x="22.0211" y="49.8196" width="8.9472" height="6.18038" fill="#212121"/>
<rect x="33.0317" y="49.8196" width="8.9472" height="6.18038" fill="#212121"/>
<rect x="44.0422" y="49.8196" width="8.9472" height="6.18038" fill="#212121"/>
<rect x="55.0528" y="8" width="8.9472" height="6.18038" fill="#212121"/>
<rect x="55.0528" y="16.3639" width="8.9472" height="6.18038" fill="#212121"/>
<rect x="55.0528" y="24.7278" width="8.9472" height="6.18038" fill="#212121"/>
<rect x="55.0528" y="33.0918" width="8.9472" height="6.18038" fill="#212121"/>
<rect x="55.0528" y="41.4557" width="8.9472" height="6.18038" fill="#212121"/>
<rect x="55.0528" y="49.8196" width="8.9472" height="6.18038" fill="#212121"/>
</svg>
