<svg width="64" height="64" viewBox="0 0 64 64" fill="none" xmlns="http://www.w3.org/2000/svg">
<path d="M58 56H6C2.68625 56 0 53.3138 0 50V14C0 10.6862 2.68625 8 6 8H58C61.3138 8 64 10.6862 64 14V50C64 53.3138 61.3138 56 58 56ZM14 15C10.134 15 7 18.134 7 22C7 25.866 10.134 29 14 29C17.866 29 21 25.866 21 22C21 18.134 17.866 15 14 15ZM8 48H56V34L45.0606 23.0606C44.4749 22.4749 43.5251 22.4749 42.9393 23.0606L26 40L19.0606 33.0606C18.4749 32.4749 17.5251 32.4749 16.9393 33.0606L8 42V48Z" fill="white"/>
</svg>
