<svg width="385" height="71" viewBox="0 0 385 71" fill="none" xmlns="http://www.w3.org/2000/svg">
<path d="M43.3895 1.6C44.4535 1.6 44.9855 2.132 44.9855 3.196V68.404C44.9855 69.468 44.4535 70 43.3895 70H32.4455C31.3815 70 30.8495 69.468 30.8495 68.404V38.08L23.3255 65.212C23.1735 65.592 22.9835 65.782 22.7555 65.782C22.5275 65.782 22.3375 65.592 22.1855 65.212L14.6615 38.08V68.404C14.6615 69.468 14.1295 70 13.0655 70H2.12151C1.05751 70 0.525508 69.468 0.525508 68.404V3.196C0.525508 2.132 1.05751 1.6 2.12151 1.6H11.8115C12.2675 1.6 12.6475 1.79 12.9515 2.17C13.3315 2.474 13.5975 2.816 13.7495 3.196L22.7555 38.308L31.7615 3.196C31.9135 2.816 32.1415 2.474 32.4455 2.17C32.8255 1.79 33.2435 1.6 33.6995 1.6H43.3895ZM87.2189 56.434C87.2189 58.41 86.8389 60.272 86.0789 62.02C85.3189 63.768 84.2929 65.288 83.0009 66.58C81.7089 67.872 80.1889 68.898 78.4409 69.658C76.6929 70.418 74.8309 70.798 72.8549 70.798H68.5229C66.5469 70.798 64.6849 70.418 62.9369 69.658C61.1889 68.898 59.6689 67.872 58.3769 66.58C57.0849 65.288 56.0589 63.768 55.2989 62.02C54.5389 60.272 54.1589 58.41 54.1589 56.434V15.166C54.1589 13.19 54.5389 11.328 55.2989 9.58C56.0589 7.832 57.0849 6.312 58.3769 5.01999C59.6689 3.728 61.1889 2.702 62.9369 1.942C64.6849 1.182 66.5469 0.801994 68.5229 0.801994H72.8549C74.8309 0.801994 76.6929 1.182 78.4409 1.942C80.1889 2.702 81.7089 3.728 83.0009 5.01999C84.2929 6.312 85.3189 7.832 86.0789 9.58C86.8389 11.328 87.2189 13.19 87.2189 15.166V56.434ZM73.8809 15.736C73.8809 14.976 73.6149 14.33 73.0829 13.798C72.5509 13.266 71.9049 13 71.1449 13H70.2329C69.4729 13 68.8269 13.266 68.2949 13.798C67.7629 14.33 67.4969 14.976 67.4969 15.736V55.864C67.4969 56.624 67.7629 57.27 68.2949 57.802C68.8269 58.334 69.4729 58.6 70.2329 58.6H71.1449C71.9049 58.6 72.5509 58.334 73.0829 57.802C73.6149 57.27 73.8809 56.624 73.8809 55.864V15.736ZM131.719 1.6C132.783 1.6 133.239 2.132 133.087 3.196L119.635 68.404C119.483 69.468 118.875 70 117.811 70H107.779C106.715 70 106.107 69.468 105.955 68.404L92.503 3.196C92.351 2.132 92.807 1.6 93.871 1.6H106.183C107.171 1.6 107.741 2.132 107.893 3.196L112.567 45.832H113.023L117.697 3.196C117.849 2.132 118.419 1.6 119.407 1.6H131.719ZM152.801 68.404C152.801 69.468 152.269 70 151.205 70H141.059C139.995 70 139.463 69.468 139.463 68.404V3.196C139.463 2.132 139.995 1.6 141.059 1.6H151.205C152.269 1.6 152.801 2.132 152.801 3.196V68.404ZM189.399 56.662C190.463 56.662 190.995 57.194 190.995 58.258V68.404C190.995 69.468 190.463 70 189.399 70H164.661C163.597 70 163.065 69.468 163.065 68.404V3.196C163.065 2.132 163.597 1.6 164.661 1.6H189.399C190.463 1.6 190.995 2.132 190.995 3.196V13.342C190.995 14.406 190.463 14.938 189.399 14.938H176.403V27.934H187.689C188.753 27.934 189.285 28.466 189.285 29.53V39.676C189.285 40.74 188.753 41.272 187.689 41.272H176.403V56.662H189.399ZM219.389 1.6C221.365 1.6 223.227 1.98 224.975 2.74C226.723 3.5 228.243 4.526 229.535 5.818C230.827 7.11 231.853 8.63 232.613 10.378C233.373 12.126 233.753 13.988 233.753 15.964V31.126C233.753 33.102 233.373 34.964 232.613 36.712C231.853 38.46 230.827 39.98 229.535 41.272C228.243 42.564 226.723 43.59 224.975 44.35C223.227 45.11 221.365 45.49 219.389 45.49H214.031V68.404C214.031 69.468 213.499 70 212.435 70H202.289C201.225 70 200.693 69.468 200.693 68.404V3.196C200.693 2.132 201.225 1.6 202.289 1.6H219.389ZM220.415 16.534C220.415 15.774 220.149 15.128 219.617 14.596C219.085 14.064 218.439 13.798 217.679 13.798H214.031V33.292H217.679C218.439 33.292 219.085 33.026 219.617 32.494C220.149 31.962 220.415 31.316 220.415 30.556V16.534ZM254.555 68.404C254.555 69.468 253.985 70 252.845 70H242.699C241.711 70 241.217 69.468 241.217 68.404V3.196C241.217 2.132 241.749 1.6 242.813 1.6H259.913C261.889 1.6 263.751 1.98 265.499 2.74C267.247 3.5 268.767 4.526 270.059 5.818C271.351 7.11 272.377 8.63 273.137 10.378C273.897 12.126 274.277 13.988 274.277 15.964V29.986C274.277 32.798 273.441 35.344 271.769 37.624C270.097 39.828 268.083 41.538 265.727 42.754L276.557 68.404C276.785 69.468 276.405 70 275.417 70H265.043C264.587 70 264.131 69.848 263.675 69.544C263.295 69.24 263.029 68.86 262.877 68.404L254.555 47.314V68.404ZM254.555 32.152H258.203C258.963 32.152 259.609 31.886 260.141 31.354C260.673 30.822 260.939 30.176 260.939 29.416V16.534C260.939 15.774 260.673 15.128 260.141 14.596C259.609 14.064 258.963 13.798 258.203 13.798H254.555V32.152ZM297.416 68.404C297.416 69.468 296.884 70 295.82 70H285.674C284.61 70 284.078 69.468 284.078 68.404V3.196C284.078 2.132 284.61 1.6 285.674 1.6H295.82C296.884 1.6 297.416 2.132 297.416 3.196V68.404ZM342.564 1.6C343.628 1.6 344.16 2.132 344.16 3.196V68.404C344.16 69.468 343.628 70 342.564 70H335.268C334.812 70 334.356 69.848 333.9 69.544C333.52 69.24 333.254 68.898 333.102 68.518L321.018 38.764V68.404C321.018 69.468 320.486 70 319.422 70H309.276C308.212 70 307.68 69.468 307.68 68.404V3.196C307.68 2.132 308.212 1.6 309.276 1.6H316.8C317.256 1.6 317.674 1.752 318.054 2.056C318.51 2.36 318.814 2.702 318.966 3.082L330.822 36.256V3.196C330.822 2.132 331.354 1.6 332.418 1.6H342.564ZM383.166 1.6C384.23 1.6 384.762 2.132 384.762 3.196V13.342C384.762 14.406 384.23 14.938 383.166 14.938H375.072V68.404C375.072 69.468 374.54 70 373.476 70H363.33C362.95 70 362.57 69.848 362.19 69.544C361.886 69.24 361.734 68.86 361.734 68.404V14.938H353.754C352.69 14.938 352.158 14.406 352.158 13.342V3.196C352.158 2.132 352.69 1.6 353.754 1.6H383.166Z" fill="white"/>
</svg>
